<?xml version="1.0" encoding="utf-8"?>
<!-- Generator: Adobe Illustrator 23.0.1, SVG Export Plug-In . SVG Version: 6.00 Build 0)  -->
<svg version="1.1" id="Layer_1" xmlns="http://www.w3.org/2000/svg" xmlns:xlink="http://www.w3.org/1999/xlink" x="0px" y="0px"
	 viewBox="0 0 24 30" style="enable-background:new 0 0 24 30;" xml:space="preserve">
<g>
	<path d="M23.2,19.6H0.8c-0.4,0-0.6-0.3-0.6-0.6V5.1c0-0.4,0.3-0.7,0.6-0.7h22.3c0.4,0,0.6,0.3,0.6,0.7v13.8
		C23.8,19.3,23.5,19.6,23.2,19.6z M1.5,18.3h21V5.7h-21V18.3z"/>
	<path d="M12.1,14c-0.1,0-0.3,0-0.4-0.1l-11-8C0.5,5.7,0.4,5.3,0.6,5c0.2-0.3,0.6-0.4,0.9-0.1l10.6,7.7l10.2-8
		c0.3-0.2,0.7-0.2,0.9,0.1c0.2,0.3,0.2,0.7-0.1,0.9l-10.6,8.3C12.4,14,12.3,14,12.1,14z"/>
	<path d="M1.5,19.6c-0.2,0-0.4-0.1-0.5-0.3c-0.2-0.3-0.2-0.7,0.1-0.9l8.8-6.9c0.3-0.2,0.7-0.2,0.9,0.1c0.2,0.3,0.2,0.7-0.1,0.9
		l-8.8,6.9C1.8,19.5,1.7,19.6,1.5,19.6z"/>
	<path d="M23.1,19.3c-0.1,0-0.3,0-0.4-0.1l-9.2-6.7c-0.3-0.2-0.4-0.6-0.1-0.9s0.6-0.4,0.9-0.1l9.2,6.7c0.3,0.2,0.4,0.6,0.1,0.9
		C23.5,19.2,23.3,19.3,23.1,19.3z"/>
</g>
</svg>
